<svg viewBox="0 0 330 200" xmlns="http://www.w3.org/2000/svg"><g><g><g><g><g><line x1="58" y1="172.01662815948356" x2="53" y2="172.01662815948356" style="visibility: inherit;" fill="rgb(0, 0, 0)" stroke="rgb(204, 204, 204)" stroke-width="1px"></line><line x1="58" y1="158.33300371580384" x2="53" y2="158.33300371580384" style="visibility: inherit;" fill="rgb(0, 0, 0)" stroke="rgb(204, 204, 204)" stroke-width="1px"></line><line x1="58" y1="144.6493792721242" x2="53" y2="144.6493792721242" style="visibility: inherit;" fill="rgb(0, 0, 0)" stroke="rgb(204, 204, 204)" stroke-width="1px"></line><line x1="58" y1="130.96575482844452" x2="53" y2="130.96575482844452" style="visibility: inherit;" fill="rgb(0, 0, 0)" stroke="rgb(204, 204, 204)" stroke-width="1px"></line><line x1="58" y1="117.2821303847648" x2="53" y2="117.2821303847648" style="visibility: inherit;" fill="rgb(0, 0, 0)" stroke="rgb(204, 204, 204)" stroke-width="1px"></line><line x1="58" y1="103.5985059410851" x2="53" y2="103.5985059410851" style="visibility: inherit;" fill="rgb(0, 0, 0)" stroke="rgb(204, 204, 204)" stroke-width="1px"></line><line x1="58" y1="89.91488149740539" x2="53" y2="89.91488149740539" style="visibility: inherit;" fill="rgb(0, 0, 0)" stroke="rgb(204, 204, 204)" stroke-width="1px"></line><line x1="58" y1="76.23125705372567" x2="53" y2="76.23125705372567" style="visibility: inherit;" fill="rgb(0, 0, 0)" stroke="rgb(204, 204, 204)" stroke-width="1px"></line><line x1="58" y1="62.547632610046065" x2="53" y2="62.547632610046065" style="visibility: inherit;" fill="rgb(0, 0, 0)" stroke="rgb(204, 204, 204)" stroke-width="1px"></line><line x1="58" y1="48.86400816636635" x2="53" y2="48.86400816636635" style="visibility: inherit;" fill="rgb(0, 0, 0)" stroke="rgb(204, 204, 204)" stroke-width="1px"></line><line x1="58" y1="35.180383722686656" x2="53" y2="35.180383722686656" style="visibility: inherit;" fill="rgb(0, 0, 0)" stroke="rgb(204, 204, 204)" stroke-width="1px"></line><line x1="58" y1="21.496759279006938" x2="53" y2="21.496759279006938" style="visibility: inherit;" fill="rgb(0, 0, 0)" stroke="rgb(204, 204, 204)" stroke-width="1px"></line><line x1="58" y1="7.813134835327247" x2="53" y2="7.813134835327247" style="visibility: inherit;" fill="rgb(0, 0, 0)" stroke="rgb(204, 204, 204)" stroke-width="1px"></line></g><g transform="translate(48, 0)"><text x="0" y="172.01662815948356" dx="0em" dy="0.3em" style="text-anchor: end; visibility: inherit; font-family: &quot;Helvetica Neue&quot;, sans-serif; font-size: 12px; font-weight: 200;" fill="rgb(50, 49, 63)" stroke="none" stroke-width="1px">0.78</text><text x="0" y="158.33300371580384" dx="0em" dy="0.3em" style="text-anchor: end; visibility: hidden; font-family: &quot;Helvetica Neue&quot;, sans-serif; font-size: 12px; font-weight: 200;" fill="rgb(50, 49, 63)" stroke="none" stroke-width="1px">0.8</text><text x="0" y="144.6493792721242" dx="0em" dy="0.3em" style="text-anchor: end; visibility: inherit; font-family: &quot;Helvetica Neue&quot;, sans-serif; font-size: 12px; font-weight: 200;" fill="rgb(50, 49, 63)" stroke="none" stroke-width="1px">0.82</text><text x="0" y="130.96575482844452" dx="0em" dy="0.3em" style="text-anchor: end; visibility: hidden; font-family: &quot;Helvetica Neue&quot;, sans-serif; font-size: 12px; font-weight: 200;" fill="rgb(50, 49, 63)" stroke="none" stroke-width="1px">0.84</text><text x="0" y="117.2821303847648" dx="0em" dy="0.3em" style="text-anchor: end; visibility: inherit; font-family: &quot;Helvetica Neue&quot;, sans-serif; font-size: 12px; font-weight: 200;" fill="rgb(50, 49, 63)" stroke="none" stroke-width="1px">0.86</text><text x="0" y="103.5985059410851" dx="0em" dy="0.3em" style="text-anchor: end; visibility: hidden; font-family: &quot;Helvetica Neue&quot;, sans-serif; font-size: 12px; font-weight: 200;" fill="rgb(50, 49, 63)" stroke="none" stroke-width="1px">0.88</text><text x="0" y="89.91488149740539" dx="0em" dy="0.3em" style="text-anchor: end; visibility: inherit; font-family: &quot;Helvetica Neue&quot;, sans-serif; font-size: 12px; font-weight: 200;" fill="rgb(50, 49, 63)" stroke="none" stroke-width="1px">0.9</text><text x="0" y="76.23125705372567" dx="0em" dy="0.3em" style="text-anchor: end; visibility: hidden; font-family: &quot;Helvetica Neue&quot;, sans-serif; font-size: 12px; font-weight: 200;" fill="rgb(50, 49, 63)" stroke="none" stroke-width="1px">0.92</text><text x="0" y="62.547632610046065" dx="0em" dy="0.3em" style="text-anchor: end; visibility: inherit; font-family: &quot;Helvetica Neue&quot;, sans-serif; font-size: 12px; font-weight: 200;" fill="rgb(50, 49, 63)" stroke="none" stroke-width="1px">0.94</text><text x="0" y="48.86400816636635" dx="0em" dy="0.3em" style="text-anchor: end; visibility: hidden; font-family: &quot;Helvetica Neue&quot;, sans-serif; font-size: 12px; font-weight: 200;" fill="rgb(50, 49, 63)" stroke="none" stroke-width="1px">0.96</text><text x="0" y="35.180383722686656" dx="0em" dy="0.3em" style="text-anchor: end; visibility: inherit; font-family: &quot;Helvetica Neue&quot;, sans-serif; font-size: 12px; font-weight: 200;" fill="rgb(50, 49, 63)" stroke="none" stroke-width="1px">0.98</text><text x="0" y="21.496759279006938" dx="0em" dy="0.3em" style="text-anchor: end; visibility: hidden; font-family: &quot;Helvetica Neue&quot;, sans-serif; font-size: 12px; font-weight: 200;" fill="rgb(50, 49, 63)" stroke="none" stroke-width="1px">1</text><text x="0" y="7.813134835327247" dx="0em" dy="0.3em" style="text-anchor: end; visibility: inherit; font-family: &quot;Helvetica Neue&quot;, sans-serif; font-size: 12px; font-weight: 200;" fill="rgb(50, 49, 63)" stroke="none" stroke-width="1px">1.02</text></g><line x1="58" y1="0" x2="58" y2="178" fill="rgb(0, 0, 0)" stroke="rgb(204, 204, 204)" stroke-width="1px"></line></g></g><g transform="translate(58, 0)" clip-path="url(#clip_0)"><clipPath id="clip_0"><rect width="272" height="178"></rect></clipPath><g><g><g><line x1="11.46221538767781" y1="0" x2="11.46221538767781" y2="178" fill="rgb(0, 0, 0)" stroke="rgb(60, 60, 60)" stroke-width="1px" opacity="0.25"></line><line x1="35.85699154944386" y1="0" x2="35.85699154944386" y2="178" fill="rgb(0, 0, 0)" stroke="rgb(60, 60, 60)" stroke-width="1px" opacity="0.25"></line><line x1="60.2517677112099" y1="0" x2="60.2517677112099" y2="178" fill="rgb(0, 0, 0)" stroke="rgb(60, 60, 60)" stroke-width="1px" opacity="0.25"></line><line x1="84.64654387297594" y1="0" x2="84.64654387297594" y2="178" fill="rgb(0, 0, 0)" stroke="rgb(60, 60, 60)" stroke-width="1px" opacity="0.25"></line><line x1="109.04132003474199" y1="0" x2="109.04132003474199" y2="178" fill="rgb(0, 0, 0)" stroke="rgb(60, 60, 60)" stroke-width="1px" opacity="0.25"></line><line x1="133.43609619650803" y1="0" x2="133.43609619650803" y2="178" fill="rgb(0, 0, 0)" stroke="rgb(60, 60, 60)" stroke-width="1px" opacity="0.25"></line><line x1="157.8308723582741" y1="0" x2="157.8308723582741" y2="178" fill="rgb(0, 0, 0)" stroke="rgb(60, 60, 60)" stroke-width="1px" opacity="0.25"></line><line x1="182.22564852004012" y1="0" x2="182.22564852004012" y2="178" fill="rgb(0, 0, 0)" stroke="rgb(60, 60, 60)" stroke-width="1px" opacity="0.25"></line><line x1="206.62042468180616" y1="0" x2="206.62042468180616" y2="178" fill="rgb(0, 0, 0)" stroke="rgb(60, 60, 60)" stroke-width="1px" opacity="0.25"></line><line x1="231.01520084357222" y1="0" x2="231.01520084357222" y2="178" fill="rgb(0, 0, 0)" stroke="rgb(60, 60, 60)" stroke-width="1px" opacity="0.25"></line><line x1="255.40997700533825" y1="0" x2="255.40997700533825" y2="178" fill="rgb(0, 0, 0)" stroke="rgb(60, 60, 60)" stroke-width="1px" opacity="0.25"></line></g><g><line x1="0" y1="172.01662815948356" x2="272" y2="172.01662815948356" fill="rgb(0, 0, 0)" stroke="rgb(60, 60, 60)" stroke-width="1px" opacity="0.25"></line><line x1="0" y1="158.33300371580384" x2="272" y2="158.33300371580384" fill="rgb(0, 0, 0)" stroke="rgb(60, 60, 60)" stroke-width="1px" opacity="0.25"></line><line x1="0" y1="144.6493792721242" x2="272" y2="144.6493792721242" fill="rgb(0, 0, 0)" stroke="rgb(60, 60, 60)" stroke-width="1px" opacity="0.25"></line><line x1="0" y1="130.96575482844452" x2="272" y2="130.96575482844452" fill="rgb(0, 0, 0)" stroke="rgb(60, 60, 60)" stroke-width="1px" opacity="0.25"></line><line x1="0" y1="117.2821303847648" x2="272" y2="117.2821303847648" fill="rgb(0, 0, 0)" stroke="rgb(60, 60, 60)" stroke-width="1px" opacity="0.25"></line><line x1="0" y1="103.5985059410851" x2="272" y2="103.5985059410851" fill="rgb(0, 0, 0)" stroke="rgb(60, 60, 60)" stroke-width="1px" opacity="0.25"></line><line x1="0" y1="89.91488149740539" x2="272" y2="89.91488149740539" fill="rgb(0, 0, 0)" stroke="rgb(60, 60, 60)" stroke-width="1px" opacity="0.25"></line><line x1="0" y1="76.23125705372567" x2="272" y2="76.23125705372567" fill="rgb(0, 0, 0)" stroke="rgb(60, 60, 60)" stroke-width="1px" opacity="0.25"></line><line x1="0" y1="62.547632610046065" x2="272" y2="62.547632610046065" fill="rgb(0, 0, 0)" stroke="rgb(60, 60, 60)" stroke-width="1px" opacity="0.25"></line><line x1="0" y1="48.86400816636635" x2="272" y2="48.86400816636635" fill="rgb(0, 0, 0)" stroke="rgb(60, 60, 60)" stroke-width="1px" opacity="0.25"></line><line x1="0" y1="35.180383722686656" x2="272" y2="35.180383722686656" fill="rgb(0, 0, 0)" stroke="rgb(60, 60, 60)" stroke-width="1px" opacity="0.25"></line><line x1="0" y1="21.496759279006938" x2="272" y2="21.496759279006938" fill="rgb(0, 0, 0)" stroke="rgb(60, 60, 60)" stroke-width="1px" opacity="0.25"></line><line x1="0" y1="7.813134835327247" x2="272" y2="7.813134835327247" fill="rgb(0, 0, 0)" stroke="rgb(60, 60, 60)" stroke-width="1px" opacity="0.25"></line></g></g></g><g><g><line x1="0" y1="705.6779814629916" x2="272" y2="705.6779814629916" fill="rgb(0, 0, 0)" stroke="rgb(153, 153, 153)" stroke-width="1.5px"></line></g></g><g><g><line x1="11.46221538767781" y1="0" x2="11.46221538767781" y2="178" fill="rgb(0, 0, 0)" stroke="rgb(153, 153, 153)" stroke-width="1.5px"></line></g></g><g><g><g><g><g><path stroke="rgb(255, 112, 67)" stroke-width="2px" d="M18.780648236207625,200.5426943093015L21.22012585238423,174.53582478183267L23.659603468560835,153.594811428326L26.09908108473744,136.71640781399495L28.53855870091404,123.54385353194036L30.97803631709065,112.06879299637663L33.41751393326725,103.21710114658723L35.85699154944386,95.05591337704045L38.296469165620465,90.17819152550852L40.73594678179706,85.43855118437821L43.17542439797367,80.31457830905862L45.614902014150275,77.66561228328244L48.05437963032688,75.5274164527317L50.49385724650349,73.01896619144513L52.933334862680084,70.6687699436192L55.37281247885669,69.34333968335947L57.8122900950333,68.08318727881888L60.2517677112099,66.05912134826605L62.691245327386504,65.30964526863694L65.13072294356311,63.59196344922488L67.57020055973972,61.335645856669515L70.00967817591632,60.02412704823898L72.44915579209292,59.32174786272658L74.88863340826953,58.097273078748785L77.32811102444613,57.447118631334874L79.76758864062273,56.423037905232164L82.20706625679932,55.93538409257806L84.64654387297594,53.69856259285217L87.08602148915254,52.483264246482875L89.52549910532915,52.430338196932084L91.96497672150575,51.55327054254208L94.40445433768235,50.688895372063726L96.84393195385897,49.49401740823481L99.28340957003556,48.903884992095755L101.72288718621218,47.95808224746648L104.16236480238878,47.982323899340884L106.60184241856537,46.98248143688423L109.04132003474199,45.15686458461528L111.48079765091859,44.991352357838565L113.92027526709519,44.13124627638501L116.3597528832718,43.741993293331205L118.79923049944841,43.297101268892106L121.238708115625,42.14258926764967L123.6781857318016,42.379723638033596L126.11766334797822,41.97254574965521L128.55714096415483,41.81276858562586L130.99661858033141,40.82932550064919L133.43609619650803,39.94338984604815L135.87557381268462,39.327298884299324L138.3150514288612,39.92976697494831L140.75452904503786,39.10780123916382L143.19400666121444,39.20634509277997L145.63348427739103,38.42014309073983L148.07296189356765,37.568038829058025L150.51243950974424,37.521688901497726L152.95191712592086,37.70521917958959L155.39139474209748,36.589625971777366L157.8308723582741,36.72331726465265L160.27034997445068,36.97259117835918L162.7098275906273,35.93870893641102L165.14930520680392,34.937996530784176L167.5887828229805,34.59115779438014L170.0282604391571,34.76345392514685L172.4677380553337,35.12042031057899L174.90721567151033,34.61608249326633L177.34669328768692,33.51041627316462L179.78617090386354,33.14288634472226L182.22564852004012,34.105814977828885L184.6651261362167,33.161990979406795L187.10460375239336,32.55343179585813L189.54408136856995,31.9769723632524L191.98355898474654,32.01149607629844L194.42303660092315,32.4971229335745L196.86251421709974,31.816392692396306L199.30199183327636,31.450219332184645L201.74146944945298,31.39957445403897L204.18094706562957,30.77746423206554L206.62042468180616,30.742332686995553L209.05990229798277,30.340854387344194L211.4993799141594,29.846362388429895L213.93885753033598,30.648584210262783L216.3783351465126,30.284605301304538L218.8178127626892,29.559024229834193L221.25729037886578,30.180327823638038L223.69676799504242,29.834592331348404L226.136245611219,29.796210173955927L228.5757232273956,29.604121741539103L231.01520084357222,29.657927820070313L233.45467845974883,30.070610839798405L235.89415607592542,29.134757749311802L238.33363369210204,29.038174836619874L240.77311130827863,28.261707440432758L243.21258892445522,27.077309354148497L245.65206654063186,28.860358036207856L248.09154415680845,28.493151948299584L250.53102177298504,27.93469370744063L252.97049938916166,27.346030055953236" style="fill: none;" fill="none"></path></g></g></g></g><g opacity="0.2"><g><g><g><path stroke="rgb(255, 112, 67)" stroke-width="2px" d="M16.34117062003102,195.10445914088416L18.780648236207625,158.54431948220474L21.22012585238423,140.58125592676933L23.659603468560835,124.62585119561913L26.09908108473744,112.58002059104376L28.53855870091404,104.33814293218354L30.97803631709065,95.14530762217858L33.41751393326725,90.073370361225L35.85699154944386,82.88815309512657L38.296469165620465,82.88815309512657L40.73594678179706,78.34456642074323L43.17542439797367,72.6386573923598L45.614902014150275,73.69527700474289L48.05437963032688,72.32163072826617L50.49385724650349,69.25735229159785L52.933334862680084,67.14407228645301L55.37281247885669,67.35539620892963L57.8122900950333,66.19307385492954L60.2517677112099,63.023133457022894L62.691245327386504,64.185455811023L65.13072294356311,61.01547463273765L67.57020055973972,57.95119619606932L70.00967817591632,58.056858157307644L72.44915579209292,58.26818207978424L74.88863340826953,56.26056403587771L77.32811102444613,56.4718879583543L79.76758864062273,54.88691775940099L82.20706625679932,55.20390364311592L84.64654387297594,50.34333108501767L87.08602148915254,50.6603169687326L89.52549910532915,52.35094912892421L91.96497672150575,50.23766912377937L94.40445433768235,49.39233265349418L96.84393195385897,47.70170049330258L99.28340957003556,48.0186863770175L101.72288718621218,46.5393781393025L104.16236480238878,48.0186863770175L106.60184241856537,45.482717746540715L109.04132003474199,42.41843930987238L111.48079765091859,44.74308401787255L113.92027526709519,42.8410871548256L116.3597528832718,43.15811381891925L118.79923049944841,42.629763232349006L121.238708115625,40.410821265965836L123.6781857318016,42.735425193587304L126.11766334797822,41.3617789171106L128.55714096415483,41.57310283958722L130.99661858033141,39.35416087320405L133.43609619650803,38.61448636415719L135.87557381268462,38.40316244168059L138.3150514288612,40.833469110919054L140.75452904503786,37.87485263548905L143.19400666121444,39.35416087320405L145.63348427739103,37.24084008768051L148.07296189356765,36.28988243653572L150.51243950974424,37.452164010157105L152.95191712592086,37.980514596727346L155.39139474209748,34.91623616005904L157.8308723582741,36.92385420396556L160.27034997445068,37.34650204891881L162.7098275906273,34.387885573488774L165.14930520680392,33.43692792234401L167.5887828229805,34.07089968977388L170.0282604391571,35.02189812129734L172.4677380553337,35.65586988872718L174.90721567151033,33.85957576729726L177.34669328768692,31.851916943012014L179.78617090386354,32.59159145205885L182.22564852004012,35.550207927488856L184.6651261362167,31.74625498177369L187.10460375239336,31.640593020535363L189.54408136856995,31.112283214343847L191.98355898474654,32.063281645867335L194.42303660092315,33.22556321948869L196.86251421709974,30.795297330628927L199.30199183327636,30.900959291867224L201.74146944945298,31.323607136820442L204.18094706562957,29.844298899105468L206.62042468180616,30.68963536939063L209.05990229798277,29.738636937867142L211.4993799141594,29.104624390058603L213.93885753033598,31.851916943012014L216.3783351465126,29.738636937867142L218.8178127626892,28.470652622628734L221.25729037886578,31.112283214343847L223.69676799504242,29.315989092913895L226.136245611219,29.738636937867142L228.5757232273956,29.315989092913895L231.01520084357222,29.738636937867142L233.45467845974883,30.68963536939063L235.89415607592542,27.730978113581898L238.33363369210204,28.89330046758198L240.77311130827863,27.097006346152057L243.21258892445522,25.300712224722105L245.65206654063186,31.534931059297065L248.09154415680845,27.94234281643722L250.53102177298504,27.097006346152057L252.97049938916166,26.463034578722215" style="fill: none;" fill="none"></path></g></g></g></g></g></g><g transform="translate(58, 178)" clip-path="url(#clip_1)"><clipPath id="clip_1"><rect width="272" height="22"></rect></clipPath><g><g><line x1="11.46221538767781" y1="0" x2="11.46221538767781" y2="5" style="visibility: inherit;" fill="rgb(0, 0, 0)" stroke="rgb(204, 204, 204)" stroke-width="1px"></line><line x1="35.85699154944386" y1="0" x2="35.85699154944386" y2="5" style="visibility: inherit;" fill="rgb(0, 0, 0)" stroke="rgb(204, 204, 204)" stroke-width="1px"></line><line x1="60.2517677112099" y1="0" x2="60.2517677112099" y2="5" style="visibility: inherit;" fill="rgb(0, 0, 0)" stroke="rgb(204, 204, 204)" stroke-width="1px"></line><line x1="84.64654387297594" y1="0" x2="84.64654387297594" y2="5" style="visibility: inherit;" fill="rgb(0, 0, 0)" stroke="rgb(204, 204, 204)" stroke-width="1px"></line><line x1="109.04132003474199" y1="0" x2="109.04132003474199" y2="5" style="visibility: inherit;" fill="rgb(0, 0, 0)" stroke="rgb(204, 204, 204)" stroke-width="1px"></line><line x1="133.43609619650803" y1="0" x2="133.43609619650803" y2="5" style="visibility: inherit;" fill="rgb(0, 0, 0)" stroke="rgb(204, 204, 204)" stroke-width="1px"></line><line x1="157.8308723582741" y1="0" x2="157.8308723582741" y2="5" style="visibility: inherit;" fill="rgb(0, 0, 0)" stroke="rgb(204, 204, 204)" stroke-width="1px"></line><line x1="182.22564852004012" y1="0" x2="182.22564852004012" y2="5" style="visibility: inherit;" fill="rgb(0, 0, 0)" stroke="rgb(204, 204, 204)" stroke-width="1px"></line><line x1="206.62042468180616" y1="0" x2="206.62042468180616" y2="5" style="visibility: inherit;" fill="rgb(0, 0, 0)" stroke="rgb(204, 204, 204)" stroke-width="1px"></line><line x1="231.01520084357222" y1="0" x2="231.01520084357222" y2="5" style="visibility: inherit;" fill="rgb(0, 0, 0)" stroke="rgb(204, 204, 204)" stroke-width="1px"></line><line x1="255.40997700533825" y1="0" x2="255.40997700533825" y2="5" style="visibility: inherit;" fill="rgb(0, 0, 0)" stroke="rgb(204, 204, 204)" stroke-width="1px"></line></g><g transform="translate(0, 8)"><text x="11.46221538767781" y="0" dx="0em" dy="0.95em" style="text-anchor: middle; visibility: inherit; font-family: &quot;Helvetica Neue&quot;, sans-serif; font-size: 12px; font-weight: 200;" fill="rgb(50, 49, 63)" stroke="none" stroke-width="1px">0</text><text x="35.85699154944386" y="0" dx="0em" dy="0.95em" style="text-anchor: middle; visibility: inherit; font-family: &quot;Helvetica Neue&quot;, sans-serif; font-size: 12px; font-weight: 200;" fill="rgb(50, 49, 63)" stroke="none" stroke-width="1px">10</text><text x="60.2517677112099" y="0" dx="0em" dy="0.95em" style="text-anchor: middle; visibility: inherit; font-family: &quot;Helvetica Neue&quot;, sans-serif; font-size: 12px; font-weight: 200;" fill="rgb(50, 49, 63)" stroke="none" stroke-width="1px">20</text><text x="84.64654387297594" y="0" dx="0em" dy="0.95em" style="text-anchor: middle; visibility: inherit; font-family: &quot;Helvetica Neue&quot;, sans-serif; font-size: 12px; font-weight: 200;" fill="rgb(50, 49, 63)" stroke="none" stroke-width="1px">30</text><text x="109.04132003474199" y="0" dx="0em" dy="0.95em" style="text-anchor: middle; visibility: inherit; font-family: &quot;Helvetica Neue&quot;, sans-serif; font-size: 12px; font-weight: 200;" fill="rgb(50, 49, 63)" stroke="none" stroke-width="1px">40</text><text x="133.43609619650803" y="0" dx="0em" dy="0.95em" style="text-anchor: middle; visibility: inherit; font-family: &quot;Helvetica Neue&quot;, sans-serif; font-size: 12px; font-weight: 200;" fill="rgb(50, 49, 63)" stroke="none" stroke-width="1px">50</text><text x="157.8308723582741" y="0" dx="0em" dy="0.95em" style="text-anchor: middle; visibility: inherit; font-family: &quot;Helvetica Neue&quot;, sans-serif; font-size: 12px; font-weight: 200;" fill="rgb(50, 49, 63)" stroke="none" stroke-width="1px">60</text><text x="182.22564852004012" y="0" dx="0em" dy="0.95em" style="text-anchor: middle; visibility: inherit; font-family: &quot;Helvetica Neue&quot;, sans-serif; font-size: 12px; font-weight: 200;" fill="rgb(50, 49, 63)" stroke="none" stroke-width="1px">70</text><text x="206.62042468180616" y="0" dx="0em" dy="0.95em" style="text-anchor: middle; visibility: inherit; font-family: &quot;Helvetica Neue&quot;, sans-serif; font-size: 12px; font-weight: 200;" fill="rgb(50, 49, 63)" stroke="none" stroke-width="1px">80</text><text x="231.01520084357222" y="0" dx="0em" dy="0.95em" style="text-anchor: middle; visibility: inherit; font-family: &quot;Helvetica Neue&quot;, sans-serif; font-size: 12px; font-weight: 200;" fill="rgb(50, 49, 63)" stroke="none" stroke-width="1px">90</text><text x="255.40997700533825" y="0" dx="0em" dy="0.95em" style="text-anchor: middle; visibility: inherit; font-family: &quot;Helvetica Neue&quot;, sans-serif; font-size: 12px; font-weight: 200;" fill="rgb(50, 49, 63)" stroke="none" stroke-width="1px">100</text></g><line x1="0" y1="0" x2="272" y2="0" fill="rgb(0, 0, 0)" stroke="rgb(204, 204, 204)" stroke-width="1px"></line></g></g></g></g></svg>