<svg viewBox="0 0 330 200" xmlns="http://www.w3.org/2000/svg"><g><g><g><g><g><line x1="58" y1="178" x2="53" y2="178" style="visibility: inherit;" fill="rgb(0, 0, 0)" stroke="rgb(204, 204, 204)" stroke-width="1px"></line><line x1="58" y1="158.22222222222223" x2="53" y2="158.22222222222223" style="visibility: inherit;" fill="rgb(0, 0, 0)" stroke="rgb(204, 204, 204)" stroke-width="1px"></line><line x1="58" y1="138.44444444444446" x2="53" y2="138.44444444444446" style="visibility: inherit;" fill="rgb(0, 0, 0)" stroke="rgb(204, 204, 204)" stroke-width="1px"></line><line x1="58" y1="118.66666666666666" x2="53" y2="118.66666666666666" style="visibility: inherit;" fill="rgb(0, 0, 0)" stroke="rgb(204, 204, 204)" stroke-width="1px"></line><line x1="58" y1="98.88888888888889" x2="53" y2="98.88888888888889" style="visibility: inherit;" fill="rgb(0, 0, 0)" stroke="rgb(204, 204, 204)" stroke-width="1px"></line><line x1="58" y1="79.1111111111111" x2="53" y2="79.1111111111111" style="visibility: inherit;" fill="rgb(0, 0, 0)" stroke="rgb(204, 204, 204)" stroke-width="1px"></line><line x1="58" y1="59.33333333333334" x2="53" y2="59.33333333333334" style="visibility: inherit;" fill="rgb(0, 0, 0)" stroke="rgb(204, 204, 204)" stroke-width="1px"></line><line x1="58" y1="39.55555555555557" x2="53" y2="39.55555555555557" style="visibility: inherit;" fill="rgb(0, 0, 0)" stroke="rgb(204, 204, 204)" stroke-width="1px"></line><line x1="58" y1="19.7777777777778" x2="53" y2="19.7777777777778" style="visibility: inherit;" fill="rgb(0, 0, 0)" stroke="rgb(204, 204, 204)" stroke-width="1px"></line><line x1="58" y1="0" x2="53" y2="0" style="visibility: inherit;" fill="rgb(0, 0, 0)" stroke="rgb(204, 204, 204)" stroke-width="1px"></line></g><g transform="translate(48, 0)"><text x="0" y="178" dx="0em" dy="0.3em" style="text-anchor: end; visibility: hidden; font-family: &quot;Helvetica Neue&quot;, sans-serif; font-size: 12px; font-weight: 200;" fill="rgb(50, 49, 63)" stroke="none" stroke-width="1px">-0.1</text><text x="0" y="158.22222222222223" dx="0em" dy="0.3em" style="text-anchor: end; visibility: inherit; font-family: &quot;Helvetica Neue&quot;, sans-serif; font-size: 12px; font-weight: 200;" fill="rgb(50, 49, 63)" stroke="none" stroke-width="1px">0</text><text x="0" y="138.44444444444446" dx="0em" dy="0.3em" style="text-anchor: end; visibility: hidden; font-family: &quot;Helvetica Neue&quot;, sans-serif; font-size: 12px; font-weight: 200;" fill="rgb(50, 49, 63)" stroke="none" stroke-width="1px">0.1</text><text x="0" y="118.66666666666666" dx="0em" dy="0.3em" style="text-anchor: end; visibility: inherit; font-family: &quot;Helvetica Neue&quot;, sans-serif; font-size: 12px; font-weight: 200;" fill="rgb(50, 49, 63)" stroke="none" stroke-width="1px">0.2</text><text x="0" y="98.88888888888889" dx="0em" dy="0.3em" style="text-anchor: end; visibility: hidden; font-family: &quot;Helvetica Neue&quot;, sans-serif; font-size: 12px; font-weight: 200;" fill="rgb(50, 49, 63)" stroke="none" stroke-width="1px">0.3</text><text x="0" y="79.1111111111111" dx="0em" dy="0.3em" style="text-anchor: end; visibility: inherit; font-family: &quot;Helvetica Neue&quot;, sans-serif; font-size: 12px; font-weight: 200;" fill="rgb(50, 49, 63)" stroke="none" stroke-width="1px">0.4</text><text x="0" y="59.33333333333334" dx="0em" dy="0.3em" style="text-anchor: end; visibility: hidden; font-family: &quot;Helvetica Neue&quot;, sans-serif; font-size: 12px; font-weight: 200;" fill="rgb(50, 49, 63)" stroke="none" stroke-width="1px">0.5</text><text x="0" y="39.55555555555557" dx="0em" dy="0.3em" style="text-anchor: end; visibility: inherit; font-family: &quot;Helvetica Neue&quot;, sans-serif; font-size: 12px; font-weight: 200;" fill="rgb(50, 49, 63)" stroke="none" stroke-width="1px">0.6</text><text x="0" y="19.7777777777778" dx="0em" dy="0.3em" style="text-anchor: end; visibility: hidden; font-family: &quot;Helvetica Neue&quot;, sans-serif; font-size: 12px; font-weight: 200;" fill="rgb(50, 49, 63)" stroke="none" stroke-width="1px">0.7</text><text x="0" y="0" dx="0em" dy="0.3em" style="text-anchor: end; visibility: hidden; font-family: &quot;Helvetica Neue&quot;, sans-serif; font-size: 12px; font-weight: 200;" fill="rgb(50, 49, 63)" stroke="none" stroke-width="1px">0.8</text></g><line x1="58" y1="0" x2="58" y2="178" fill="rgb(0, 0, 0)" stroke="rgb(204, 204, 204)" stroke-width="1px"></line></g></g><g transform="translate(58, 0)" clip-path="url(#clip_0)"><clipPath id="clip_0"><rect width="272" height="178"></rect></clipPath><g><g><g><line x1="0" y1="0" x2="0" y2="178" fill="rgb(0, 0, 0)" stroke="rgb(60, 60, 60)" stroke-width="1px" opacity="0.25"></line><line x1="22.666666666666664" y1="0" x2="22.666666666666664" y2="178" fill="rgb(0, 0, 0)" stroke="rgb(60, 60, 60)" stroke-width="1px" opacity="0.25"></line><line x1="45.33333333333333" y1="0" x2="45.33333333333333" y2="178" fill="rgb(0, 0, 0)" stroke="rgb(60, 60, 60)" stroke-width="1px" opacity="0.25"></line><line x1="68" y1="0" x2="68" y2="178" fill="rgb(0, 0, 0)" stroke="rgb(60, 60, 60)" stroke-width="1px" opacity="0.25"></line><line x1="90.66666666666666" y1="0" x2="90.66666666666666" y2="178" fill="rgb(0, 0, 0)" stroke="rgb(60, 60, 60)" stroke-width="1px" opacity="0.25"></line><line x1="113.33333333333334" y1="0" x2="113.33333333333334" y2="178" fill="rgb(0, 0, 0)" stroke="rgb(60, 60, 60)" stroke-width="1px" opacity="0.25"></line><line x1="136" y1="0" x2="136" y2="178" fill="rgb(0, 0, 0)" stroke="rgb(60, 60, 60)" stroke-width="1px" opacity="0.25"></line><line x1="158.66666666666669" y1="0" x2="158.66666666666669" y2="178" fill="rgb(0, 0, 0)" stroke="rgb(60, 60, 60)" stroke-width="1px" opacity="0.25"></line><line x1="181.33333333333331" y1="0" x2="181.33333333333331" y2="178" fill="rgb(0, 0, 0)" stroke="rgb(60, 60, 60)" stroke-width="1px" opacity="0.25"></line><line x1="204" y1="0" x2="204" y2="178" fill="rgb(0, 0, 0)" stroke="rgb(60, 60, 60)" stroke-width="1px" opacity="0.25"></line><line x1="226.66666666666669" y1="0" x2="226.66666666666669" y2="178" fill="rgb(0, 0, 0)" stroke="rgb(60, 60, 60)" stroke-width="1px" opacity="0.25"></line><line x1="249.33333333333331" y1="0" x2="249.33333333333331" y2="178" fill="rgb(0, 0, 0)" stroke="rgb(60, 60, 60)" stroke-width="1px" opacity="0.25"></line><line x1="272" y1="0" x2="272" y2="178" fill="rgb(0, 0, 0)" stroke="rgb(60, 60, 60)" stroke-width="1px" opacity="0.25"></line></g><g><line x1="0" y1="178" x2="272" y2="178" fill="rgb(0, 0, 0)" stroke="rgb(60, 60, 60)" stroke-width="1px" opacity="0.25"></line><line x1="0" y1="158.22222222222223" x2="272" y2="158.22222222222223" fill="rgb(0, 0, 0)" stroke="rgb(60, 60, 60)" stroke-width="1px" opacity="0.25"></line><line x1="0" y1="138.44444444444446" x2="272" y2="138.44444444444446" fill="rgb(0, 0, 0)" stroke="rgb(60, 60, 60)" stroke-width="1px" opacity="0.25"></line><line x1="0" y1="118.66666666666666" x2="272" y2="118.66666666666666" fill="rgb(0, 0, 0)" stroke="rgb(60, 60, 60)" stroke-width="1px" opacity="0.25"></line><line x1="0" y1="98.88888888888889" x2="272" y2="98.88888888888889" fill="rgb(0, 0, 0)" stroke="rgb(60, 60, 60)" stroke-width="1px" opacity="0.25"></line><line x1="0" y1="79.1111111111111" x2="272" y2="79.1111111111111" fill="rgb(0, 0, 0)" stroke="rgb(60, 60, 60)" stroke-width="1px" opacity="0.25"></line><line x1="0" y1="59.33333333333334" x2="272" y2="59.33333333333334" fill="rgb(0, 0, 0)" stroke="rgb(60, 60, 60)" stroke-width="1px" opacity="0.25"></line><line x1="0" y1="39.55555555555557" x2="272" y2="39.55555555555557" fill="rgb(0, 0, 0)" stroke="rgb(60, 60, 60)" stroke-width="1px" opacity="0.25"></line><line x1="0" y1="19.7777777777778" x2="272" y2="19.7777777777778" fill="rgb(0, 0, 0)" stroke="rgb(60, 60, 60)" stroke-width="1px" opacity="0.25"></line><line x1="0" y1="0" x2="272" y2="0" fill="rgb(0, 0, 0)" stroke="rgb(60, 60, 60)" stroke-width="1px" opacity="0.25"></line></g></g></g><g><g><line x1="0" y1="158.22222222222223" x2="272" y2="158.22222222222223" fill="rgb(0, 0, 0)" stroke="rgb(153, 153, 153)" stroke-width="1.5px"></line></g></g><g><g><line x1="22.666666666666664" y1="0" x2="22.666666666666664" y2="178" fill="rgb(0, 0, 0)" stroke="rgb(153, 153, 153)" stroke-width="1.5px"></line></g></g><g><g><g><g><g><path stroke="rgb(255, 112, 67)" stroke-width="2px" d="M29.46666666666667,-8.00745490066754L31.733333333333334,16.677250868206613L34,36.19026610760662L36.266666666666666,50.94616816757541L38.53333333333333,62.26290883002602L40.8,72.59387453760091L43.06666666666666,80.52946995012148L45.33333333333333,87.17711836315604L47.599999999999994,92.81056008097084L49.86666666666666,96.87261910556468L52.13333333333334,100.88334197655816L54.400000000000006,103.20059601272004L56.66666666666667,105.81627040292186L58.93333333333334,107.8324694546631L61.2,109.66842053993818L63.46666666666667,111.04939478486774L65.73333333333333,112.22129502080747L68,114.04550679807168L70.26666666666668,115.92019506859148L72.53333333333333,117.23073879925442L74.80000000000001,118.56112029481889L77.06666666666666,119.47327401153329L79.33333333333334,120.81005890658346L81.6,122.08623772438915L83.86666666666667,122.71325623167397L86.13333333333333,123.47857411592585L88.4,124.50946806743914L90.66666666666666,126.18341709583704L92.93333333333334,127.22471376910593L95.19999999999999,127.89025744456768L97.46666666666667,128.87048193106043L99.73333333333332,129.29294374357778L102,130.5087976825741L104.26666666666668,131.50033127651685L106.53333333333333,132.49619217320162L108.80000000000001,132.66715514726772L111.06666666666666,133.7793809710946L113.33333333333334,135.06208896376293L115.6,135.79190643904522L117.86666666666667,136.45819448549994L120.13333333333333,137.19336826554095L122.4,137.68719648429945L124.66666666666666,138.37630659477423L126.93333333333334,138.72519363115117L129.2,139.20002410038649L131.46666666666667,139.7950111223798L133.73333333333332,140.5708218888628L136,140.98126855218405L138.26666666666665,141.50228992867352L140.53333333333336,141.565218155855L142.8,142.23819879210507L145.06666666666666,142.0298523794601L147.33333333333331,142.57680111738665L149.60000000000002,143.45265461902744L151.86666666666667,144.08465613332623L154.13333333333333,143.9124841694468L156.39999999999998,144.65645871188846L158.66666666666669,144.77198753134374L160.93333333333334,144.6696982359778L163.2,145.3147563423251L165.46666666666664,145.9050191963369L167.73333333333335,146.49374396815492L170,146.6202107316463L172.26666666666665,146.73513067971257L174.53333333333336,146.80918086892717L176.8,147.38632476325643L179.06666666666666,147.91681809224175L181.33333333333331,147.30444735485804L183.60000000000002,148.4042861937062L185.86666666666667,148.57907020719307L188.13333333333333,148.9735946251572L190.39999999999998,149.04246439101024L192.66666666666669,148.9881083415982L194.93333333333334,149.43736391943912L197.2,149.54605410505664L199.46666666666664,149.7255076673852L201.73333333333335,150.41292900817288L204,150.33350536941836L206.26666666666665,150.65046486157453L208.53333333333336,150.97564953107602L210.8,150.60084949523255L213.06666666666666,150.90859867222468L215.33333333333331,151.51761659800096L217.60000000000002,151.08547297475852L219.86666666666667,151.38879025791954L222.13333333333333,151.3697762385566L224.39999999999998,151.55085975898658L226.66666666666669,151.77715854893802L228.93333333333334,151.33645314273312L231.2,151.87733917810763L233.46666666666664,151.81989181730762L235.73333333333335,152.44977082096372L238,153.02128825157584L240.26666666666665,151.2894900263199L242.53333333333336,152.07133470268803L244.8,152.61471066417022L247.06666666666666,152.9400582564377" style="fill: none;" fill="none"></path></g></g></g></g><g opacity="0.2"><g><g><g><path stroke="rgb(255, 112, 67)" stroke-width="2px" d="M27.200000000000003,-3.5592610041300077L29.46666666666667,30.047851694954772L31.733333333333334,48.905602720048705L34,63.18379086918303L36.266666666666666,72.04734420776367L38.53333333333333,78.76282535658943L40.8,87.8300422694948L43.06666666666666,92.31290429168278L45.33333333333333,97.08829730086858L47.599999999999994,101.23006571663751L49.86666666666666,102.95244431495668L52.13333333333334,106.89156885941824L54.400000000000006,106.67375322182974L56.66666666666667,109.73793721199037L58.93333333333334,110.85591484440698L61.2,112.42188102006914L63.46666666666667,113.12064577473535L65.73333333333333,113.97903825839362L68,116.78172441985873L70.26666666666668,118.73216578695511L72.53333333333333,119.19652852084903L74.80000000000001,120.55667677852844L77.06666666666666,120.8414981034067L79.33333333333334,122.8152305483818L81.6,124.00050268570583L83.86666666666667,123.65378302998013L86.13333333333333,124.62655023733775L88.4,126.05580842494965L90.66666666666666,128.69434008333417L92.93333333333334,128.78665857182608L95.19999999999999,128.88857287830777L97.46666666666667,130.34081859058804L99.73333333333332,129.92663644419775L102,132.33257855971652L104.26666666666668,132.98763165209027L106.53333333333333,133.98998350898424L108.80000000000001,132.92359960741467L111.06666666666666,135.447719703118L113.33333333333334,136.9861509501934L115.6,136.88663265109062L117.86666666666667,137.45762655470105L120.13333333333333,138.2961289352841L122.4,138.42793881230884L124.66666666666666,139.40997176037894L126.93333333333334,139.248524185684L129.2,139.91226980421277L131.46666666666667,140.68749165534973L133.73333333333332,141.73453803857169L136,141.5969385471609L138.26666666666665,142.28382199340396L140.53333333333336,141.65961049662695L142.8,143.2476697464784L145.06666666666666,141.71733276049295L147.33333333333331,143.39722422427602L149.60000000000002,144.76643487148814L151.86666666666667,145.03265840477414L154.13333333333333,143.65422622362772L156.39999999999998,145.77242052555084L158.66666666666669,144.94528076052666L160.93333333333334,144.5162642929289L163.2,146.282343501846L165.46666666666664,146.79041347735458L167.73333333333335,147.37683112588195L170,146.8099108768834L172.26666666666665,146.90751060181194L174.53333333333336,146.92025615274906L176.8,148.2520406047503L179.06666666666666,148.71255808571973L181.33333333333331,146.38589124878249L183.60000000000002,150.05404445197848L185.86666666666667,148.84124622742334L188.13333333333333,149.56538125210338L190.39999999999998,149.14576903978983L192.66666666666669,148.9065742674801L194.93333333333334,150.11124728620052L197.2,149.70908938348293L199.46666666666664,149.99468801087804L201.73333333333335,151.4440610193544L204,150.21436991128655L206.26666666666665,151.1259040998088L208.53333333333336,151.46342653532824L210.8,150.03864944146738L213.06666666666666,151.37022243771287L215.33333333333331,152.43114348666535L217.60000000000002,150.43725753989486L219.86666666666667,151.84376618266106L222.13333333333333,151.34125520951218L224.39999999999998,151.82248503963152L226.66666666666669,152.1166067338652L228.93333333333334,150.67539503342576L231.2,152.68866823116937L233.46666666666664,151.7337207761076L235.73333333333335,153.3945893264479L238,153.878564397494L240.26666666666665,148.69179268843598L242.53333333333336,153.24410171724028L244.8,153.42977460639344L247.06666666666666,153.42807964483896" style="fill: none;" fill="none"></path></g></g></g></g></g><g><g opacity="0.935605"><span style="white-space: normal;" fill="rgb(0, 0, 0)" stroke="none" stroke-width="1px">Alt + Scroll to Zoom</span></g></g></g><g transform="translate(58, 178)" clip-path="url(#clip_1)"><clipPath id="clip_1"><rect width="272" height="22"></rect></clipPath><g><g><line x1="0" y1="0" x2="0" y2="5" style="visibility: inherit;" fill="rgb(0, 0, 0)" stroke="rgb(204, 204, 204)" stroke-width="1px"></line><line x1="22.666666666666664" y1="0" x2="22.666666666666664" y2="5" style="visibility: inherit;" fill="rgb(0, 0, 0)" stroke="rgb(204, 204, 204)" stroke-width="1px"></line><line x1="45.33333333333333" y1="0" x2="45.33333333333333" y2="5" style="visibility: inherit;" fill="rgb(0, 0, 0)" stroke="rgb(204, 204, 204)" stroke-width="1px"></line><line x1="68" y1="0" x2="68" y2="5" style="visibility: inherit;" fill="rgb(0, 0, 0)" stroke="rgb(204, 204, 204)" stroke-width="1px"></line><line x1="90.66666666666666" y1="0" x2="90.66666666666666" y2="5" style="visibility: inherit;" fill="rgb(0, 0, 0)" stroke="rgb(204, 204, 204)" stroke-width="1px"></line><line x1="113.33333333333334" y1="0" x2="113.33333333333334" y2="5" style="visibility: inherit;" fill="rgb(0, 0, 0)" stroke="rgb(204, 204, 204)" stroke-width="1px"></line><line x1="136" y1="0" x2="136" y2="5" style="visibility: inherit;" fill="rgb(0, 0, 0)" stroke="rgb(204, 204, 204)" stroke-width="1px"></line><line x1="158.66666666666669" y1="0" x2="158.66666666666669" y2="5" style="visibility: inherit;" fill="rgb(0, 0, 0)" stroke="rgb(204, 204, 204)" stroke-width="1px"></line><line x1="181.33333333333331" y1="0" x2="181.33333333333331" y2="5" style="visibility: inherit;" fill="rgb(0, 0, 0)" stroke="rgb(204, 204, 204)" stroke-width="1px"></line><line x1="204" y1="0" x2="204" y2="5" style="visibility: inherit;" fill="rgb(0, 0, 0)" stroke="rgb(204, 204, 204)" stroke-width="1px"></line><line x1="226.66666666666669" y1="0" x2="226.66666666666669" y2="5" style="visibility: inherit;" fill="rgb(0, 0, 0)" stroke="rgb(204, 204, 204)" stroke-width="1px"></line><line x1="249.33333333333331" y1="0" x2="249.33333333333331" y2="5" style="visibility: inherit;" fill="rgb(0, 0, 0)" stroke="rgb(204, 204, 204)" stroke-width="1px"></line><line x1="272" y1="0" x2="272" y2="5" style="visibility: inherit;" fill="rgb(0, 0, 0)" stroke="rgb(204, 204, 204)" stroke-width="1px"></line></g><g transform="translate(0, 8)"><text x="0" y="0" dx="0em" dy="0.95em" style="text-anchor: middle; visibility: hidden; font-family: &quot;Helvetica Neue&quot;, sans-serif; font-size: 12px; font-weight: 200;" fill="rgb(50, 49, 63)" stroke="none" stroke-width="1px">-10</text><text x="22.666666666666664" y="0" dx="0em" dy="0.95em" style="text-anchor: middle; visibility: inherit; font-family: &quot;Helvetica Neue&quot;, sans-serif; font-size: 12px; font-weight: 200;" fill="rgb(50, 49, 63)" stroke="none" stroke-width="1px">0</text><text x="45.33333333333333" y="0" dx="0em" dy="0.95em" style="text-anchor: middle; visibility: hidden; font-family: &quot;Helvetica Neue&quot;, sans-serif; font-size: 12px; font-weight: 200;" fill="rgb(50, 49, 63)" stroke="none" stroke-width="1px">10</text><text x="68" y="0" dx="0em" dy="0.95em" style="text-anchor: middle; visibility: inherit; font-family: &quot;Helvetica Neue&quot;, sans-serif; font-size: 12px; font-weight: 200;" fill="rgb(50, 49, 63)" stroke="none" stroke-width="1px">20</text><text x="90.66666666666666" y="0" dx="0em" dy="0.95em" style="text-anchor: middle; visibility: hidden; font-family: &quot;Helvetica Neue&quot;, sans-serif; font-size: 12px; font-weight: 200;" fill="rgb(50, 49, 63)" stroke="none" stroke-width="1px">30</text><text x="113.33333333333334" y="0" dx="0em" dy="0.95em" style="text-anchor: middle; visibility: inherit; font-family: &quot;Helvetica Neue&quot;, sans-serif; font-size: 12px; font-weight: 200;" fill="rgb(50, 49, 63)" stroke="none" stroke-width="1px">40</text><text x="136" y="0" dx="0em" dy="0.95em" style="text-anchor: middle; visibility: hidden; font-family: &quot;Helvetica Neue&quot;, sans-serif; font-size: 12px; font-weight: 200;" fill="rgb(50, 49, 63)" stroke="none" stroke-width="1px">50</text><text x="158.66666666666669" y="0" dx="0em" dy="0.95em" style="text-anchor: middle; visibility: inherit; font-family: &quot;Helvetica Neue&quot;, sans-serif; font-size: 12px; font-weight: 200;" fill="rgb(50, 49, 63)" stroke="none" stroke-width="1px">60</text><text x="181.33333333333331" y="0" dx="0em" dy="0.95em" style="text-anchor: middle; visibility: hidden; font-family: &quot;Helvetica Neue&quot;, sans-serif; font-size: 12px; font-weight: 200;" fill="rgb(50, 49, 63)" stroke="none" stroke-width="1px">70</text><text x="204" y="0" dx="0em" dy="0.95em" style="text-anchor: middle; visibility: inherit; font-family: &quot;Helvetica Neue&quot;, sans-serif; font-size: 12px; font-weight: 200;" fill="rgb(50, 49, 63)" stroke="none" stroke-width="1px">80</text><text x="226.66666666666669" y="0" dx="0em" dy="0.95em" style="text-anchor: middle; visibility: hidden; font-family: &quot;Helvetica Neue&quot;, sans-serif; font-size: 12px; font-weight: 200;" fill="rgb(50, 49, 63)" stroke="none" stroke-width="1px">90</text><text x="249.33333333333331" y="0" dx="0em" dy="0.95em" style="text-anchor: middle; visibility: inherit; font-family: &quot;Helvetica Neue&quot;, sans-serif; font-size: 12px; font-weight: 200;" fill="rgb(50, 49, 63)" stroke="none" stroke-width="1px">100</text><text x="272" y="0" dx="0em" dy="0.95em" style="text-anchor: middle; visibility: hidden; font-family: &quot;Helvetica Neue&quot;, sans-serif; font-size: 12px; font-weight: 200;" fill="rgb(50, 49, 63)" stroke="none" stroke-width="1px">110</text></g><line x1="0" y1="0" x2="272" y2="0" fill="rgb(0, 0, 0)" stroke="rgb(204, 204, 204)" stroke-width="1px"></line></g></g></g></g></svg>